<svg xmlns="http://www.w3.org/2000/svg" viewBox="0 0 120 150" width="240" height="300">
<rect x="35.5" y="30" width="9" height="26" rx="4.5" fill="#FF4D6D"></rect><rect x="45.5" y="22" width="9" height="34" rx="4.5" fill="#FF9E2C"></rect><rect x="55.5" y="16" width="9" height="40" rx="4.5" fill="#FFD23F"></rect><rect x="65.5" y="22" width="9" height="34" rx="4.5" fill="#38D39F"></rect><rect x="75.5" y="30" width="9" height="26" rx="4.5" fill="#4D9DE0"></rect>
      <ellipse cx="47" cy="129" rx="12" ry="7.5" fill="#C9197A"></ellipse><ellipse cx="73" cy="129" rx="12" ry="7.5" fill="#C9197A"></ellipse>
      <path d="M90 86 Q107 82 108 96" fill="none" stroke="#ED2C92" stroke-width="12" stroke-linecap="round"></path>
      <rect x="26" y="46" width="68" height="80" rx="32" fill="#ED2C92"></rect><ellipse cx="60" cy="104" rx="20" ry="16" fill="#F792C2"></ellipse><circle cx="37" cy="88" r="5.5" fill="#FF7FB0"></circle><circle cx="83" cy="88" r="5.5" fill="#FF7FB0"></circle>
      <circle cx="48" cy="74" r="13" fill="#fff"></circle><circle cx="72" cy="74" r="13" fill="#fff"></circle><circle cx="50" cy="79" r="5" fill="#2A2030"></circle><circle cx="74" cy="79" r="5" fill="#2A2030"></circle><circle cx="52" cy="77" r="1.6" fill="#fff"></circle><circle cx="76" cy="77" r="1.6" fill="#fff"></circle>
      <ellipse cx="64" cy="101" rx="4" ry="4.5" fill="#3A2233"></ellipse>
      <g transform="rotate(-20 64 110)">
        <rect x="44" y="103" width="38" height="13" rx="3.5" fill="#4D9DE0"></rect>
        <rect x="58" y="103" width="6" height="13" fill="#fff" opacity="0.55"></rect>
        <polygon points="82,103 95,109.5 82,116" fill="#FFD23F"></polygon>
        <polygon points="89,106 95,109.5 89,113" fill="#2A2030"></polygon>
      </g>
      <path d="M30 92 Q28 110 56 108" fill="none" stroke="#ED2C92" stroke-width="12" stroke-linecap="round"></path>
</svg>