<svg xmlns="http://www.w3.org/2000/svg" viewBox="0 0 120 150" width="240" height="300">
<rect x="35.5" y="30" width="9" height="26" rx="4.5" fill="#FF4D6D"></rect><rect x="45.5" y="22" width="9" height="34" rx="4.5" fill="#FF9E2C"></rect><rect x="55.5" y="16" width="9" height="40" rx="4.5" fill="#FFD23F"></rect><rect x="65.5" y="22" width="9" height="34" rx="4.5" fill="#38D39F"></rect><rect x="75.5" y="30" width="9" height="26" rx="4.5" fill="#4D9DE0"></rect>
      <ellipse cx="47" cy="129" rx="12" ry="7.5" fill="#C9197A"></ellipse><ellipse cx="73" cy="129" rx="12" ry="7.5" fill="#C9197A"></ellipse>
      <path d="M90 88 Q106 96 110 110" fill="none" stroke="#ED2C92" stroke-width="12" stroke-linecap="round"></path>
      <path d="M30 88 Q14 96 10 110" fill="none" stroke="#ED2C92" stroke-width="12" stroke-linecap="round"></path>
      <rect x="26" y="46" width="68" height="80" rx="32" fill="#ED2C92"></rect><ellipse cx="60" cy="104" rx="20" ry="16" fill="#F792C2"></ellipse><circle cx="37" cy="88" r="5.5" fill="#FF7FB0"></circle><circle cx="83" cy="88" r="5.5" fill="#FF7FB0"></circle>
      <path d="M40 77 Q48 67 56 77" fill="none" stroke="#2A2030" stroke-width="4.2" stroke-linecap="round"></path><path d="M64 77 Q72 67 80 77" fill="none" stroke="#2A2030" stroke-width="4.2" stroke-linecap="round"></path>
      <path d="M45 96 Q60 120 75 96 Q60 106 45 96 Z" fill="#3A2233"></path><circle cx="60" cy="106" r="4.5" fill="#FF7FB0"></circle>
</svg>