<svg xmlns="http://www.w3.org/2000/svg" viewBox="0 0 120 150" width="240" height="300">
<rect x="35.5" y="30" width="9" height="26" rx="4.5" fill="#fff" stroke="#1A1A1A" stroke-width="3"></rect>
        <rect x="45.5" y="22" width="9" height="34" rx="4.5" fill="#fff" stroke="#1A1A1A" stroke-width="3"></rect>
        <rect x="55.5" y="16" width="9" height="40" rx="4.5" fill="#fff" stroke="#1A1A1A" stroke-width="3"></rect>
        <rect x="65.5" y="22" width="9" height="34" rx="4.5" fill="#fff" stroke="#1A1A1A" stroke-width="3"></rect>
        <rect x="75.5" y="30" width="9" height="26" rx="4.5" fill="#fff" stroke="#1A1A1A" stroke-width="3"></rect>
        <ellipse cx="47" cy="129" rx="12" ry="7.5" fill="#fff" stroke="#1A1A1A" stroke-width="3.5"></ellipse>
        <ellipse cx="73" cy="129" rx="12" ry="7.5" fill="#fff" stroke="#1A1A1A" stroke-width="3.5"></ellipse>
        <path d="M30 86 Q13 76 11 58" fill="none" stroke="#1A1A1A" stroke-width="13" stroke-linecap="round"></path>
        <path d="M30 86 Q13 76 11 58" fill="none" stroke="#fff" stroke-width="8" stroke-linecap="round"></path>
        <path d="M90 86 Q107 82 108 96" fill="none" stroke="#1A1A1A" stroke-width="13" stroke-linecap="round"></path>
        <path d="M90 86 Q107 82 108 96" fill="none" stroke="#fff" stroke-width="8" stroke-linecap="round"></path>
        <rect x="26" y="46" width="68" height="80" rx="32" fill="#fff" stroke="#1A1A1A" stroke-width="4"></rect>
        <circle cx="48" cy="74" r="13" fill="#fff" stroke="#1A1A1A" stroke-width="3"></circle>
        <circle cx="72" cy="74" r="13" fill="#fff" stroke="#1A1A1A" stroke-width="3"></circle>
        <circle cx="50" cy="76" r="5.5" fill="#1A1A1A"></circle>
        <circle cx="74" cy="76" r="5.5" fill="#1A1A1A"></circle>
        <path d="M47 97 Q60 116 73 97 Q60 104 47 97 Z" fill="#fff" stroke="#1A1A1A" stroke-width="3" stroke-linejoin="round"></path>
</svg>