<svg xmlns="http://www.w3.org/2000/svg" viewBox="0 0 120 150" width="240" height="300">
<path d="M18 38 Q18 44 24 44 Q18 44 18 50 Q18 44 12 44 Q18 44 18 38 Z" fill="#FFD23F"></path>
      <path d="M103 36 Q103 41 108 41 Q103 41 103 46 Q103 41 98 41 Q103 41 103 36 Z" fill="#38D39F"></path>
      <path d="M96 16 Q96 21 101 21 Q96 21 96 26 Q96 21 91 21 Q96 21 96 16 Z" fill="#4D9DE0"></path>
      <rect x="35.5" y="30" width="9" height="26" rx="4.5" fill="#FF4D6D"></rect><rect x="45.5" y="22" width="9" height="34" rx="4.5" fill="#FF9E2C"></rect><rect x="55.5" y="16" width="9" height="40" rx="4.5" fill="#FFD23F"></rect><rect x="65.5" y="22" width="9" height="34" rx="4.5" fill="#38D39F"></rect><rect x="75.5" y="30" width="9" height="26" rx="4.5" fill="#4D9DE0"></rect>
      <ellipse cx="47" cy="129" rx="12" ry="7.5" fill="#C9197A"></ellipse><ellipse cx="73" cy="129" rx="12" ry="7.5" fill="#C9197A"></ellipse>
      <path d="M90 86 Q106 64 96 48" fill="none" stroke="#ED2C92" stroke-width="12" stroke-linecap="round"></path>
      <path d="M30 86 Q14 64 24 48" fill="none" stroke="#ED2C92" stroke-width="12" stroke-linecap="round"></path>
      <rect x="26" y="46" width="68" height="80" rx="32" fill="#ED2C92"></rect><ellipse cx="60" cy="104" rx="20" ry="16" fill="#F792C2"></ellipse><circle cx="37" cy="88" r="5.5" fill="#FF7FB0"></circle><circle cx="83" cy="88" r="5.5" fill="#FF7FB0"></circle>
      <circle cx="48" cy="74" r="13" fill="#fff"></circle><circle cx="72" cy="74" r="13" fill="#fff"></circle><circle cx="50" cy="74" r="5.5" fill="#2A2030"></circle><circle cx="74" cy="74" r="5.5" fill="#2A2030"></circle><circle cx="52" cy="72" r="1.8" fill="#fff"></circle><circle cx="76" cy="72" r="1.8" fill="#fff"></circle>
      <path d="M45 96 Q60 120 75 96 Q60 106 45 96 Z" fill="#3A2233"></path><circle cx="60" cy="106" r="4.5" fill="#FF7FB0"></circle>
</svg>