<svg xmlns="http://www.w3.org/2000/svg" viewBox="0 0 48 48" width="256" height="256">
<rect x="10" y="4" width="28" height="40" rx="5" fill="#fff" stroke="#2A2433" stroke-width="1.2"></rect><rect x="14" y="8" width="3.8" height="6.8" rx="1.06" fill="#4D9DE0" stroke="#2A2433" stroke-width="1.2"></rect><rect x="19.4" y="8" width="3.8" height="6.8" rx="1.06" fill="#E835AC" stroke="#2A2433" stroke-width="1.2"></rect><rect x="24.8" y="8" width="3.8" height="6.8" rx="1.06" fill="#FF4D6D" stroke="#2A2433" stroke-width="1.2"></rect><rect x="30.2" y="8" width="3.8" height="6.8" rx="1.06" fill="#FF9E2C" stroke="#2A2433" stroke-width="1.2"></rect><rect x="14" y="16.4" width="3.8" height="6.8" rx="1.06" fill="#FFD23F" stroke="#2A2433" stroke-width="1.2"></rect><rect x="19.4" y="16.4" width="3.8" height="6.8" rx="1.06" fill="#38D39F" stroke="#2A2433" stroke-width="1.2"></rect><rect x="24.8" y="16.4" width="3.8" height="6.8" rx="1.06" fill="#4D9DE0" stroke="#2A2433" stroke-width="1.2"></rect><rect x="30.2" y="16.4" width="3.8" height="6.8" rx="1.06" fill="#E835AC" stroke="#2A2433" stroke-width="1.2"></rect><rect x="14" y="24.8" width="3.8" height="6.8" rx="1.06" fill="#FF4D6D" stroke="#2A2433" stroke-width="1.2"></rect><rect x="19.4" y="24.8" width="3.8" height="6.8" rx="1.06" fill="#FF9E2C" stroke="#2A2433" stroke-width="1.2"></rect><rect x="24.8" y="24.8" width="3.8" height="6.8" rx="1.06" fill="#FFD23F" stroke="#2A2433" stroke-width="1.2"></rect><rect x="30.2" y="24.8" width="3.8" height="6.8" rx="1.06" fill="#38D39F" stroke="#2A2433" stroke-width="1.2"></rect><rect x="14" y="33.2" width="3.8" height="6.8" rx="1.06" fill="#4D9DE0" stroke="#2A2433" stroke-width="1.2"></rect><rect x="19.4" y="33.2" width="3.8" height="6.8" rx="1.06" fill="#E835AC" stroke="#2A2433" stroke-width="1.2"></rect><rect x="24.8" y="33.2" width="3.8" height="6.8" rx="1.06" fill="#FF4D6D" stroke="#2A2433" stroke-width="1.2"></rect><rect x="30.2" y="33.2" width="3.8" height="6.8" rx="1.06" fill="#FF9E2C" stroke="#2A2433" stroke-width="1.2"></rect>
</svg>